<?xml version="1.0" encoding="utf-8"?>
<!-- Generator: Adobe Illustrator 22.1.0, SVG Export Plug-In . SVG Version: 6.00 Build 0)  -->
<svg version="1.1" id="Layer_1" xmlns="http://www.w3.org/2000/svg" xmlns:xlink="http://www.w3.org/1999/xlink" x="0px" y="0px"
	 viewBox="0 0 281.5 65" style="enable-background:new 0 0 281.5 65;" xml:space="preserve">
<style type="text/css">
	.st0{fill:#BDB2AD;}
	.st1{fill:#2E2A29;}
</style>
<g>
	<path class="st0" d="M79.8,64.9L46.9,0.1H14.3l16.3,32.1H0v32.4c16.8,0,30.6-12.8,32.2-29.2l14.9,29.4H79.8z M2,55h18.1
		C15.2,59.3,8.9,62.1,2,62.6V55z M22.2,53L22.2,53H2v-8.5h25.8C26.4,47.7,24.6,50.5,22.2,53z M28.6,42.4H2v-8.1h28.3
		C30.1,37.1,29.5,39.9,28.6,42.4z M58,62.8L27.4,2.2h7.9l30.6,60.7H58z M76.5,62.8h-8.3L37.6,2.2h8.1L76.5,62.8z M25.1,2.2
		l30.6,60.7h-7.4L17.6,2.2H25.1z"/>
	<g>
		<path class="st1" d="M104.5,10.6h3.5l9.5,21.6h-4l-2.2-5.2h-10.2l-2.2,5.2h-3.9L104.5,10.6z M110,23.6l-3.7-8.6l-3.7,8.6H110z"/>
		<path class="st1" d="M121.5,10.7h9.6c5,0,8,2.7,8,6.8c0,3.5-2.1,5.6-5.1,6.5l5.8,8.1h-4.5l-5.3-7.5h-4.7v7.5h-3.8V10.7z
			 M130.8,21.3c2.7,0,4.4-1.4,4.4-3.6c0-2.3-1.7-3.5-4.5-3.5h-5.5v7.2H130.8z"/>
		<path class="st1" d="M143.1,21.4c0-6.1,4.6-11.1,11.1-11.1c4,0,6.4,1.4,8.4,3.3l-2.4,2.8c-1.7-1.6-3.6-2.7-6-2.7
			c-4.1,0-7.1,3.4-7.1,7.6c0,4.2,3,7.6,7.1,7.6c2.6,0,4.3-1.1,6.2-2.8l2.4,2.4c-2.2,2.3-4.7,3.8-8.7,3.8
			C147.8,32.5,143.1,27.6,143.1,21.4z"/>
		<path class="st1" d="M167,10.7h3.8v8.9h10.3v-8.9h3.8v21.4h-3.8v-9h-10.3v9H167V10.7z"/>
		<path class="st1" d="M190.9,10.7h3.8v21.4h-3.8V10.7z"/>
		<path class="st1" d="M206.1,14.2h-6.8v-3.5h17.5v3.5h-6.8v17.9h-3.8V14.2z"/>
		<path class="st1" d="M227.3,23.7l-8.5-13h4.5l6,9.5l6.1-9.5h4.3l-8.5,12.9v8.5h-3.8V23.7z"/>
		<path class="st1" d="M243.3,10.7h8.5c5,0,8.2,2.8,8.2,7.2c0,4.8-3.9,7.3-8.6,7.3h-4.3v6.9h-3.8V10.7z M251.5,21.9
			c2.9,0,4.6-1.6,4.6-3.9c0-2.5-1.8-3.8-4.6-3.8h-4.4v7.7H251.5z"/>
		<path class="st1" d="M264.2,10.7h16v3.4H268v5.6h10.8V23H268v5.7h12.3v3.4h-16.1V10.7z"/>
	</g>
	<g>
		<path class="st1" d="M95.1,43h1.3v1.4c0.6-0.8,1.3-1.6,2.7-1.6c1.4,0,2.3,0.7,2.7,1.7c0.6-0.9,1.5-1.7,3-1.7
			c1.9,0,3.1,1.3,3.1,3.4v5.2h-1.3v-4.9c0-1.6-0.8-2.5-2.2-2.5c-1.3,0-2.3,0.9-2.3,2.6v4.8h-1.2v-4.9c0-1.6-0.8-2.5-2.2-2.5
			c-1.3,0-2.4,1.1-2.4,2.6v4.8h-1.3V43z"/>
		<path class="st1" d="M110.2,47.2c0-2.4,1.9-4.4,4.4-4.4c2.5,0,4.4,2,4.4,4.4c0,2.4-1.9,4.4-4.4,4.4
			C112.1,51.6,110.2,49.6,110.2,47.2z M117.7,47.2c0-1.8-1.4-3.3-3.1-3.3c-1.8,0-3.1,1.5-3.1,3.3c0,1.8,1.3,3.3,3.1,3.3
			C116.5,50.5,117.7,49,117.7,47.2z"/>
		<path class="st1" d="M121.5,43h1.3v2.2c0.6-1.4,1.8-2.4,3.4-2.3v1.3h-0.1c-1.8,0-3.3,1.3-3.3,3.8v3.3h-1.3V43z"/>
		<path class="st1" d="M131.6,50.5c1.2,0,2-0.5,2.7-1.2L135,50c-0.8,0.9-1.9,1.6-3.5,1.6c-2.3,0-4.2-1.8-4.2-4.4
			c0-2.4,1.7-4.4,4-4.4c2.5,0,3.9,2,3.9,4.4c0,0.1,0,0.2,0,0.4h-6.7C128.8,49.5,130.1,50.5,131.6,50.5z M134.1,46.7
			c-0.1-1.5-1-2.8-2.7-2.8c-1.5,0-2.6,1.2-2.7,2.8H134.1z"/>
		<path class="st1" d="M143.2,49.2v-5.1H142V43h1.2v-2.5h1.3V43h2.7v1.1h-2.7V49c0,1,0.6,1.4,1.4,1.4c0.4,0,0.8-0.1,1.2-0.3v1.1
			c-0.4,0.2-0.9,0.4-1.5,0.4C144.2,51.6,143.2,50.9,143.2,49.2z"/>
		<path class="st1" d="M149.5,39.6h1.3v4.9c0.6-0.9,1.4-1.6,2.9-1.6c2,0,3.2,1.4,3.2,3.4v5.2h-1.3v-4.9c0-1.6-0.8-2.5-2.3-2.5
			c-1.5,0-2.5,1.1-2.5,2.6v4.8h-1.3V39.6z"/>
		<path class="st1" d="M159.1,49c0-1.8,1.5-2.7,3.6-2.7c1.1,0,1.8,0.1,2.6,0.4v-0.3c0-1.5-0.9-2.3-2.5-2.3c-1,0-1.8,0.2-2.6,0.6
			l-0.4-1c0.9-0.4,1.8-0.7,3.1-0.7c1.2,0,2.1,0.3,2.7,0.9c0.6,0.6,0.9,1.4,0.9,2.5v5.1h-1.2v-1.3c-0.6,0.7-1.6,1.4-3,1.4
			C160.7,51.6,159.1,50.7,159.1,49z M165.3,48.3v-0.8c-0.6-0.2-1.4-0.4-2.5-0.4c-1.6,0-2.5,0.7-2.5,1.7c0,1.1,1,1.7,2.1,1.7
			C164.1,50.6,165.3,49.7,165.3,48.3z"/>
		<path class="st1" d="M169.4,43h1.3v1.5c0.6-0.9,1.4-1.6,2.9-1.6c2,0,3.2,1.4,3.2,3.4v5.2h-1.3v-4.9c0-1.6-0.8-2.5-2.3-2.5
			c-1.5,0-2.5,1.1-2.5,2.6v4.8h-1.3V43z"/>
		<path class="st1" d="M183.9,50.4l0.6-0.9c0.9,0.7,1.9,1.1,2.9,1.1c1,0,1.7-0.5,1.7-1.4s-1-1.2-2.1-1.5c-1.3-0.4-2.8-0.8-2.8-2.4
			c0-1.4,1.2-2.4,2.9-2.4c1,0,2.2,0.4,3,0.9l-0.6,0.9c-0.8-0.5-1.7-0.8-2.5-0.8c-1,0-1.6,0.5-1.6,1.3c0,0.8,1,1.1,2.2,1.4
			c1.3,0.4,2.7,0.9,2.7,2.4c0,1.6-1.3,2.5-3,2.5C186.2,51.6,184.9,51.1,183.9,50.4z"/>
		<path class="st1" d="M193.2,49.2v-5.1H192V43h1.2v-2.5h1.3V43h2.7v1.1h-2.7V49c0,1,0.6,1.4,1.4,1.4c0.4,0,0.8-0.1,1.2-0.3v1.1
			c-0.4,0.2-0.9,0.4-1.5,0.4C194.2,51.6,193.2,50.9,193.2,49.2z"/>
		<path class="st1" d="M198.8,47.2c0-2.4,1.9-4.4,4.4-4.4c2.5,0,4.4,2,4.4,4.4c0,2.4-1.9,4.4-4.4,4.4
			C200.6,51.6,198.8,49.6,198.8,47.2z M206.3,47.2c0-1.8-1.4-3.3-3.1-3.3c-1.8,0-3.1,1.5-3.1,3.3c0,1.8,1.3,3.3,3.1,3.3
			C205,50.5,206.3,49,206.3,47.2z"/>
		<path class="st1" d="M210,43h1.3v1.5c0.6-0.9,1.4-1.6,2.9-1.6c2,0,3.2,1.4,3.2,3.4v5.2h-1.3v-4.9c0-1.6-0.8-2.5-2.3-2.5
			c-1.5,0-2.5,1.1-2.5,2.6v4.8H210V43z"/>
		<path class="st1" d="M223.9,50.5c1.2,0,2-0.5,2.7-1.2l0.8,0.7c-0.8,0.9-1.9,1.6-3.5,1.6c-2.3,0-4.2-1.8-4.2-4.4
			c0-2.4,1.7-4.4,4-4.4c2.5,0,3.9,2,3.9,4.4c0,0.1,0,0.2,0,0.4H221C221.1,49.5,222.4,50.5,223.9,50.5z M226.4,46.7
			c-0.1-1.5-1-2.8-2.7-2.8c-1.5,0-2.6,1.2-2.7,2.8H226.4z"/>
	</g>
</g>
</svg>
